<?xml version="1.0" encoding="utf-8" standalone="no"?>
<!DOCTYPE svg PUBLIC "-//W3C//DTD SVG 1.1//EN"
  "http://www.w3.org/Graphics/SVG/1.1/DTD/svg11.dtd">
<svg xmlns:xlink="http://www.w3.org/1999/xlink" width="330.470156pt" height="192.471598pt" viewBox="0 0 330.470156 192.471598" xmlns="http://www.w3.org/2000/svg" version="1.1">
 <metadata>
  <rdf:RDF xmlns:dc="http://purl.org/dc/elements/1.1/" xmlns:cc="http://creativecommons.org/ns#" xmlns:rdf="http://www.w3.org/1999/02/22-rdf-syntax-ns#">
   <cc:Work>
    <dc:type rdf:resource="http://purl.org/dc/dcmitype/StillImage"/>
    <dc:date>2026-07-24T05:43:33.874017</dc:date>
    <dc:format>image/svg+xml</dc:format>
    <dc:creator>
     <cc:Agent>
      <dc:title>Matplotlib v3.11.0, https://matplotlib.org/</dc:title>
     </cc:Agent>
    </dc:creator>
   </cc:Work>
  </rdf:RDF>
 </metadata>
 <defs>
  <style type="text/css">*{stroke-linejoin: round; stroke-linecap: butt}</style>
 </defs>
 <g id="figure_1">
  <g id="patch_1">
   <path d="M 0 192.471598 
L 330.470156 192.471598 
L 330.470156 0 
L 0 0 
z
" style="fill: #ffffff"/>
  </g>
  <g id="axes_1">
   <g id="line2d_1">
    <path d="M 123.113245 64.751199 
L 266.810643 64.751199 
" clip-path="url(#pd661abdf14)" style="fill: none; stroke: #000000; stroke-width: 2; stroke-linecap: square"/>
   </g>
   <g id="line2d_2">
    <path d="M 123.113245 111.105199 
L 266.810643 111.105199 
" clip-path="url(#pd661abdf14)" style="fill: none; stroke: #000000; stroke-width: 2; stroke-linecap: square"/>
   </g>
   <g id="line2d_3">
    <path d="M 123.113245 157.459198 
L 266.810643 157.459198 
" clip-path="url(#pd661abdf14)" style="fill: none; stroke: #000000; stroke-width: 2; stroke-linecap: square"/>
   </g>
   <g id="patch_2">
    <path d="M 118.477845 41.5742 
L -1040.37214 41.5742 
L -1040.37214 226.990197 
L 118.477845 226.990197 
z
" clip-path="url(#pd661abdf14)" style="fill: #ffffff; stroke: #ffffff; stroke-width: 1.5; stroke-linejoin: miter"/>
   </g>
   <g id="line2d_4">
    <path d="M 194.498404 157.459198 
L 194.498404 64.751199 
" clip-path="url(#pd661abdf14)" style="fill: none; stroke: #9f1853; stroke-width: 2; stroke-linecap: square"/>
   </g>
   <g id="patch_3">
    <path d="M 231.813373 87.928199 
L 249.891433 87.928199 
L 249.891433 41.5742 
L 231.813373 41.5742 
z
" clip-path="url(#pd661abdf14)" style="fill: #a8a8a8; opacity: 0.6"/>
   </g>
   <g id="patch_4">
    <path d="M 231.813373 134.282198 
L 249.891433 134.282198 
L 249.891433 87.928199 
L 231.813373 87.928199 
z
" clip-path="url(#pd661abdf14)" style="fill: #a8a8a8; opacity: 0.6"/>
   </g>
   <g id="patch_5">
    <path d="M 231.813373 180.636198 
L 249.891433 180.636198 
L 249.891433 134.282198 
L 231.813373 134.282198 
z
" clip-path="url(#pd661abdf14)" style="fill: #a8a8a8; opacity: 0.6"/>
   </g>
   <g id="patch_6">
    <path d="M 133.079355 126.170248 
L 163.209454 126.170248 
L 163.209454 96.040149 
L 133.079355 96.040149 
z
" clip-path="url(#pd661abdf14)" style="fill: #fa4d56; stroke: #fa4d56; stroke-width: 1.5; stroke-linejoin: miter"/>
   </g>
   <g id="patch_7">
    <path d="M 194.498404 161.978713 
C 195.696993 161.978713 196.846653 161.502508 197.694184 160.654978 
C 198.541714 159.807447 199.017919 158.657787 199.017919 157.459198 
C 199.017919 156.260609 198.541714 155.110949 197.694184 154.263418 
C 196.846653 153.415888 195.696993 152.939683 194.498404 152.939683 
C 193.299814 152.939683 192.150155 153.415888 191.302624 154.263418 
C 190.455094 155.110949 189.978889 156.260609 189.978889 157.459198 
C 189.978889 158.657787 190.455094 159.807447 191.302624 160.654978 
C 192.150155 161.502508 193.299814 161.978713 194.498404 161.978713 
z
" clip-path="url(#pd661abdf14)" style="fill: #9f1853; stroke: #9f1853; stroke-width: 1.5; stroke-linejoin: miter"/>
   </g>
   <g id="patch_8">
    <path d="M 179.433354 79.816249 
L 209.563454 79.816249 
L 209.563454 49.686149 
L 179.433354 49.686149 
z
" clip-path="url(#pd661abdf14)" style="fill: #9f1853; stroke: #9f1853; stroke-width: 1.5; stroke-linejoin: miter"/>
   </g>
   <g id="text_1">
    <g clip-path="url(#pd661abdf14)">
     <!-- ${q}_{0}$ -->
     <g transform="translate(95.804945 68.972391) scale(0.1625 -0.1625)">
      <defs>
       <path id="DejaVuSans-Oblique-54" d="M 2669 525 
Q 2438 222 2123 65 
Q 1809 -91 1428 -91 
Q 897 -91 595 267 
Q 294 625 294 1253 
Q 294 1759 480 2231 
Q 666 2703 1013 3078 
Q 1238 3322 1530 3453 
Q 1822 3584 2144 3584 
Q 2531 3584 2781 3431 
Q 3031 3278 3144 2969 
L 3244 3494 
L 3822 3494 
L 2888 -1319 
L 2309 -1319 
L 2669 525 
z
M 891 1338 
Q 891 875 1084 633 
Q 1278 391 1644 391 
Q 2188 391 2572 911 
Q 2956 1431 2956 2175 
Q 2956 2625 2757 2864 
Q 2559 3103 2188 3103 
Q 1916 3103 1684 2976 
Q 1453 2850 1281 2606 
Q 1100 2350 995 2006 
Q 891 1663 891 1338 
z
" transform="scale(0.015625)"/>
       <path id="DejaVuSans-13" d="M 2034 4250 
Q 1547 4250 1301 3770 
Q 1056 3291 1056 2328 
Q 1056 1369 1301 889 
Q 1547 409 2034 409 
Q 2525 409 2770 889 
Q 3016 1369 3016 2328 
Q 3016 3291 2770 3770 
Q 2525 4250 2034 4250 
z
M 2034 4750 
Q 2819 4750 3233 4129 
Q 3647 3509 3647 2328 
Q 3647 1150 3233 529 
Q 2819 -91 2034 -91 
Q 1250 -91 836 529 
Q 422 1150 422 2328 
Q 422 3509 836 4129 
Q 1250 4750 2034 4750 
z
" transform="scale(0.015625)"/>
      </defs>
      <use xlink:href="#DejaVuSans-Oblique-54"/>
      <use xlink:href="#DejaVuSans-13" transform="translate(63.476562 -14.999951) scale(0.7)"/>
     </g>
    </g>
   </g>
   <g id="text_2">
    <g clip-path="url(#pd661abdf14)">
     <!-- ${q}_{1}$ -->
     <g transform="translate(95.804945 115.32639) scale(0.1625 -0.1625)">
      <defs>
       <path id="DejaVuSans-14" d="M 794 531 
L 1825 531 
L 1825 4091 
L 703 3866 
L 703 4441 
L 1819 4666 
L 2450 4666 
L 2450 531 
L 3481 531 
L 3481 0 
L 794 0 
L 794 531 
z
" transform="scale(0.015625)"/>
      </defs>
      <use xlink:href="#DejaVuSans-Oblique-54"/>
      <use xlink:href="#DejaVuSans-14" transform="translate(63.476562 -14.999951) scale(0.7)"/>
     </g>
    </g>
   </g>
   <g id="text_3">
    <g clip-path="url(#pd661abdf14)">
     <!-- ${q}_{2}$ -->
     <g transform="translate(95.804945 161.680389) scale(0.1625 -0.1625)">
      <defs>
       <path id="DejaVuSans-15" d="M 1228 531 
L 3431 531 
L 3431 0 
L 469 0 
L 469 531 
Q 828 903 1448 1529 
Q 2069 2156 2228 2338 
Q 2531 2678 2651 2914 
Q 2772 3150 2772 3378 
Q 2772 3750 2511 3984 
Q 2250 4219 1831 4219 
Q 1534 4219 1204 4116 
Q 875 4013 500 3803 
L 500 4441 
Q 881 4594 1212 4672 
Q 1544 4750 1819 4750 
Q 2544 4750 2975 4387 
Q 3406 4025 3406 3419 
Q 3406 3131 3298 2873 
Q 3191 2616 2906 2266 
Q 2828 2175 2409 1742 
Q 1991 1309 1228 531 
z
" transform="scale(0.015625)"/>
      </defs>
      <use xlink:href="#DejaVuSans-Oblique-54"/>
      <use xlink:href="#DejaVuSans-15" transform="translate(63.476562 -14.999951) scale(0.7)"/>
     </g>
    </g>
   </g>
   <g id="text_4">
    <g clip-path="url(#pd661abdf14)">
     <!-- H -->
     <g transform="translate(143.256201 114.482152) scale(0.13 -0.13)">
      <defs>
       <path id="DejaVuSans-2b" d="M 628 4666 
L 1259 4666 
L 1259 2753 
L 3553 2753 
L 3553 4666 
L 4184 4666 
L 4184 0 
L 3553 0 
L 3553 2222 
L 1259 2222 
L 1259 0 
L 628 0 
L 628 4666 
z
" transform="scale(0.015625)"/>
      </defs>
      <use xlink:href="#DejaVuSans-2b"/>
     </g>
    </g>
   </g>
   <g id="text_5">
    <g clip-path="url(#pd661abdf14)">
     <!-- 0.166 -->
     <g style="fill: #ffffff" transform="translate(183.047154 75.868354) scale(0.08 -0.08)">
      <defs>
       <path id="DejaVuSans-11" d="M 684 794 
L 1344 794 
L 1344 0 
L 684 0 
L 684 794 
z
" transform="scale(0.015625)"/>
       <path id="DejaVuSans-19" d="M 2113 2584 
Q 1688 2584 1439 2293 
Q 1191 2003 1191 1497 
Q 1191 994 1439 701 
Q 1688 409 2113 409 
Q 2538 409 2786 701 
Q 3034 994 3034 1497 
Q 3034 2003 2786 2293 
Q 2538 2584 2113 2584 
z
M 3366 4563 
L 3366 3988 
Q 3128 4100 2886 4159 
Q 2644 4219 2406 4219 
Q 1781 4219 1451 3797 
Q 1122 3375 1075 2522 
Q 1259 2794 1537 2939 
Q 1816 3084 2150 3084 
Q 2853 3084 3261 2657 
Q 3669 2231 3669 1497 
Q 3669 778 3244 343 
Q 2819 -91 2113 -91 
Q 1303 -91 875 529 
Q 447 1150 447 2328 
Q 447 3434 972 4092 
Q 1497 4750 2381 4750 
Q 2619 4750 2861 4703 
Q 3103 4656 3366 4563 
z
" transform="scale(0.015625)"/>
      </defs>
      <use xlink:href="#DejaVuSans-13"/>
      <use xlink:href="#DejaVuSans-11" transform="translate(63.625 0)"/>
      <use xlink:href="#DejaVuSans-14" transform="translate(95.40625 0)"/>
      <use xlink:href="#DejaVuSans-19" transform="translate(159.03125 0)"/>
      <use xlink:href="#DejaVuSans-19" transform="translate(222.65625 0)"/>
     </g>
    </g>
   </g>
   <g id="text_6">
    <g clip-path="url(#pd661abdf14)">
     <!-- $\mathrm{R_Z}$ -->
     <g style="fill: #ffffff" transform="translate(186.568404 63.608637) scale(0.13 -0.13)">
      <defs>
       <path id="DejaVuSans-35" d="M 2841 2188 
Q 3044 2119 3236 1894 
Q 3428 1669 3622 1275 
L 4263 0 
L 3584 0 
L 2988 1197 
Q 2756 1666 2539 1819 
Q 2322 1972 1947 1972 
L 1259 1972 
L 1259 0 
L 628 0 
L 628 4666 
L 2053 4666 
Q 2853 4666 3247 4331 
Q 3641 3997 3641 3322 
Q 3641 2881 3436 2590 
Q 3231 2300 2841 2188 
z
M 1259 4147 
L 1259 2491 
L 2053 2491 
Q 2509 2491 2742 2702 
Q 2975 2913 2975 3322 
Q 2975 3731 2742 3939 
Q 2509 4147 2053 4147 
L 1259 4147 
z
" transform="scale(0.015625)"/>
       <path id="DejaVuSans-3d" d="M 359 4666 
L 4025 4666 
L 4025 4184 
L 1075 531 
L 4097 531 
L 4097 0 
L 288 0 
L 288 481 
L 3238 4134 
L 359 4134 
L 359 4666 
z
" transform="scale(0.015625)"/>
      </defs>
      <use xlink:href="#DejaVuSans-35" transform="translate(0 0.09375)"/>
      <use xlink:href="#DejaVuSans-3d" transform="translate(70.439453 -14.906201) scale(0.7)"/>
     </g>
    </g>
   </g>
   <g id="line2d_5">
    <path d="M 240.852403 41.5742 
L 240.852403 87.928199 
" clip-path="url(#pd661abdf14)" style="fill: none; stroke-dasharray: 3.7,1.6; stroke-dashoffset: 0; stroke: #000000"/>
   </g>
   <g id="line2d_6">
    <path d="M 240.852403 87.928199 
L 240.852403 134.282198 
" clip-path="url(#pd661abdf14)" style="fill: none; stroke-dasharray: 3.7,1.6; stroke-dashoffset: 0; stroke: #000000"/>
   </g>
   <g id="line2d_7">
    <path d="M 240.852403 134.282198 
L 240.852403 180.636198 
" clip-path="url(#pd661abdf14)" style="fill: none; stroke-dasharray: 3.7,1.6; stroke-dashoffset: 0; stroke: #000000"/>
   </g>
  </g>
  <g id="text_7">
   <!-- LLM Closed-loop seed0 (amplitude-encode then body; measure Z(q0)) -->
   <g transform="translate(7.2 14.038594) scale(0.09 -0.09)">
    <defs>
     <path id="DejaVuSans-2f" d="M 628 4666 
L 1259 4666 
L 1259 531 
L 3531 531 
L 3531 0 
L 628 0 
L 628 4666 
z
" transform="scale(0.015625)"/>
     <path id="DejaVuSans-30" d="M 628 4666 
L 1569 4666 
L 2759 1491 
L 3956 4666 
L 4897 4666 
L 4897 0 
L 4281 0 
L 4281 4097 
L 3078 897 
L 2444 897 
L 1241 4097 
L 1241 0 
L 628 0 
L 628 4666 
z
" transform="scale(0.015625)"/>
     <path id="DejaVuSans-3" transform="scale(0.015625)"/>
     <path id="DejaVuSans-26" d="M 4122 4306 
L 4122 3641 
Q 3803 3938 3442 4084 
Q 3081 4231 2675 4231 
Q 1875 4231 1450 3742 
Q 1025 3253 1025 2328 
Q 1025 1406 1450 917 
Q 1875 428 2675 428 
Q 3081 428 3442 575 
Q 3803 722 4122 1019 
L 4122 359 
Q 3791 134 3420 21 
Q 3050 -91 2638 -91 
Q 1578 -91 968 557 
Q 359 1206 359 2328 
Q 359 3453 968 4101 
Q 1578 4750 2638 4750 
Q 3056 4750 3426 4639 
Q 3797 4528 4122 4306 
z
" transform="scale(0.015625)"/>
     <path id="DejaVuSans-4f" d="M 603 4863 
L 1178 4863 
L 1178 0 
L 603 0 
L 603 4863 
z
" transform="scale(0.015625)"/>
     <path id="DejaVuSans-52" d="M 1959 3097 
Q 1497 3097 1228 2736 
Q 959 2375 959 1747 
Q 959 1119 1226 758 
Q 1494 397 1959 397 
Q 2419 397 2687 759 
Q 2956 1122 2956 1747 
Q 2956 2369 2687 2733 
Q 2419 3097 1959 3097 
z
M 1959 3584 
Q 2709 3584 3137 3096 
Q 3566 2609 3566 1747 
Q 3566 888 3137 398 
Q 2709 -91 1959 -91 
Q 1206 -91 779 398 
Q 353 888 353 1747 
Q 353 2609 779 3096 
Q 1206 3584 1959 3584 
z
" transform="scale(0.015625)"/>
     <path id="DejaVuSans-56" d="M 2834 3397 
L 2834 2853 
Q 2591 2978 2328 3040 
Q 2066 3103 1784 3103 
Q 1356 3103 1142 2972 
Q 928 2841 928 2578 
Q 928 2378 1081 2264 
Q 1234 2150 1697 2047 
L 1894 2003 
Q 2506 1872 2764 1633 
Q 3022 1394 3022 966 
Q 3022 478 2636 193 
Q 2250 -91 1575 -91 
Q 1294 -91 989 -36 
Q 684 19 347 128 
L 347 722 
Q 666 556 975 473 
Q 1284 391 1588 391 
Q 1994 391 2212 530 
Q 2431 669 2431 922 
Q 2431 1156 2273 1281 
Q 2116 1406 1581 1522 
L 1381 1569 
Q 847 1681 609 1914 
Q 372 2147 372 2553 
Q 372 3047 722 3315 
Q 1072 3584 1716 3584 
Q 2034 3584 2315 3537 
Q 2597 3491 2834 3397 
z
" transform="scale(0.015625)"/>
     <path id="DejaVuSans-48" d="M 3597 1894 
L 3597 1613 
L 953 1613 
Q 991 1019 1311 708 
Q 1631 397 2203 397 
Q 2534 397 2845 478 
Q 3156 559 3463 722 
L 3463 178 
Q 3153 47 2828 -22 
Q 2503 -91 2169 -91 
Q 1331 -91 842 396 
Q 353 884 353 1716 
Q 353 2575 817 3079 
Q 1281 3584 2069 3584 
Q 2775 3584 3186 3129 
Q 3597 2675 3597 1894 
z
M 3022 2063 
Q 3016 2534 2758 2815 
Q 2500 3097 2075 3097 
Q 1594 3097 1305 2825 
Q 1016 2553 972 2059 
L 3022 2063 
z
" transform="scale(0.015625)"/>
     <path id="DejaVuSans-47" d="M 2906 2969 
L 2906 4863 
L 3481 4863 
L 3481 0 
L 2906 0 
L 2906 525 
Q 2725 213 2448 61 
Q 2172 -91 1784 -91 
Q 1150 -91 751 415 
Q 353 922 353 1747 
Q 353 2572 751 3078 
Q 1150 3584 1784 3584 
Q 2172 3584 2448 3432 
Q 2725 3281 2906 2969 
z
M 947 1747 
Q 947 1113 1208 752 
Q 1469 391 1925 391 
Q 2381 391 2643 752 
Q 2906 1113 2906 1747 
Q 2906 2381 2643 2742 
Q 2381 3103 1925 3103 
Q 1469 3103 1208 2742 
Q 947 2381 947 1747 
z
" transform="scale(0.015625)"/>
     <path id="DejaVuSans-10" d="M 313 2009 
L 1997 2009 
L 1997 1497 
L 313 1497 
L 313 2009 
z
" transform="scale(0.015625)"/>
     <path id="DejaVuSans-53" d="M 1159 525 
L 1159 -1331 
L 581 -1331 
L 581 3500 
L 1159 3500 
L 1159 2969 
Q 1341 3281 1617 3432 
Q 1894 3584 2278 3584 
Q 2916 3584 3314 3078 
Q 3713 2572 3713 1747 
Q 3713 922 3314 415 
Q 2916 -91 2278 -91 
Q 1894 -91 1617 61 
Q 1341 213 1159 525 
z
M 3116 1747 
Q 3116 2381 2855 2742 
Q 2594 3103 2138 3103 
Q 1681 3103 1420 2742 
Q 1159 2381 1159 1747 
Q 1159 1113 1420 752 
Q 1681 391 2138 391 
Q 2594 391 2855 752 
Q 3116 1113 3116 1747 
z
" transform="scale(0.015625)"/>
     <path id="DejaVuSans-b" d="M 1984 4856 
Q 1566 4138 1362 3434 
Q 1159 2731 1159 2009 
Q 1159 1288 1364 580 
Q 1569 -128 1984 -844 
L 1484 -844 
Q 1016 -109 783 600 
Q 550 1309 550 2009 
Q 550 2706 781 3412 
Q 1013 4119 1484 4856 
L 1984 4856 
z
" transform="scale(0.015625)"/>
     <path id="DejaVuSans-44" d="M 2194 1759 
Q 1497 1759 1228 1600 
Q 959 1441 959 1056 
Q 959 750 1161 570 
Q 1363 391 1709 391 
Q 2188 391 2477 730 
Q 2766 1069 2766 1631 
L 2766 1759 
L 2194 1759 
z
M 3341 1997 
L 3341 0 
L 2766 0 
L 2766 531 
Q 2569 213 2275 61 
Q 1981 -91 1556 -91 
Q 1019 -91 701 211 
Q 384 513 384 1019 
Q 384 1609 779 1909 
Q 1175 2209 1959 2209 
L 2766 2209 
L 2766 2266 
Q 2766 2663 2505 2880 
Q 2244 3097 1772 3097 
Q 1472 3097 1187 3025 
Q 903 2953 641 2809 
L 641 3341 
Q 956 3463 1253 3523 
Q 1550 3584 1831 3584 
Q 2591 3584 2966 3190 
Q 3341 2797 3341 1997 
z
" transform="scale(0.015625)"/>
     <path id="DejaVuSans-50" d="M 3328 2828 
Q 3544 3216 3844 3400 
Q 4144 3584 4550 3584 
Q 5097 3584 5394 3201 
Q 5691 2819 5691 2113 
L 5691 0 
L 5113 0 
L 5113 2094 
Q 5113 2597 4934 2840 
Q 4756 3084 4391 3084 
Q 3944 3084 3684 2787 
Q 3425 2491 3425 1978 
L 3425 0 
L 2847 0 
L 2847 2094 
Q 2847 2600 2669 2842 
Q 2491 3084 2119 3084 
Q 1678 3084 1418 2786 
Q 1159 2488 1159 1978 
L 1159 0 
L 581 0 
L 581 3500 
L 1159 3500 
L 1159 2956 
Q 1356 3278 1631 3431 
Q 1906 3584 2284 3584 
Q 2666 3584 2933 3390 
Q 3200 3197 3328 2828 
z
" transform="scale(0.015625)"/>
     <path id="DejaVuSans-4c" d="M 603 3500 
L 1178 3500 
L 1178 0 
L 603 0 
L 603 3500 
z
M 603 4863 
L 1178 4863 
L 1178 4134 
L 603 4134 
L 603 4863 
z
" transform="scale(0.015625)"/>
     <path id="DejaVuSans-57" d="M 1172 4494 
L 1172 3500 
L 2356 3500 
L 2356 3053 
L 1172 3053 
L 1172 1153 
Q 1172 725 1289 603 
Q 1406 481 1766 481 
L 2356 481 
L 2356 0 
L 1766 0 
Q 1100 0 847 248 
Q 594 497 594 1153 
L 594 3053 
L 172 3053 
L 172 3500 
L 594 3500 
L 594 4494 
L 1172 4494 
z
" transform="scale(0.015625)"/>
     <path id="DejaVuSans-58" d="M 544 1381 
L 544 3500 
L 1119 3500 
L 1119 1403 
Q 1119 906 1312 657 
Q 1506 409 1894 409 
Q 2359 409 2629 706 
Q 2900 1003 2900 1516 
L 2900 3500 
L 3475 3500 
L 3475 0 
L 2900 0 
L 2900 538 
Q 2691 219 2414 64 
Q 2138 -91 1772 -91 
Q 1169 -91 856 284 
Q 544 659 544 1381 
z
M 1991 3584 
L 1991 3584 
z
" transform="scale(0.015625)"/>
     <path id="DejaVuSans-51" d="M 3513 2113 
L 3513 0 
L 2938 0 
L 2938 2094 
Q 2938 2591 2744 2837 
Q 2550 3084 2163 3084 
Q 1697 3084 1428 2787 
Q 1159 2491 1159 1978 
L 1159 0 
L 581 0 
L 581 3500 
L 1159 3500 
L 1159 2956 
Q 1366 3272 1645 3428 
Q 1925 3584 2291 3584 
Q 2894 3584 3203 3211 
Q 3513 2838 3513 2113 
z
" transform="scale(0.015625)"/>
     <path id="DejaVuSans-46" d="M 3122 3366 
L 3122 2828 
Q 2878 2963 2633 3030 
Q 2388 3097 2138 3097 
Q 1578 3097 1268 2742 
Q 959 2388 959 1747 
Q 959 1106 1268 751 
Q 1578 397 2138 397 
Q 2388 397 2633 464 
Q 2878 531 3122 666 
L 3122 134 
Q 2881 22 2623 -34 
Q 2366 -91 2075 -91 
Q 1284 -91 818 406 
Q 353 903 353 1747 
Q 353 2603 823 3093 
Q 1294 3584 2113 3584 
Q 2378 3584 2631 3529 
Q 2884 3475 3122 3366 
z
" transform="scale(0.015625)"/>
     <path id="DejaVuSans-4b" d="M 3513 2113 
L 3513 0 
L 2938 0 
L 2938 2094 
Q 2938 2591 2744 2837 
Q 2550 3084 2163 3084 
Q 1697 3084 1428 2787 
Q 1159 2491 1159 1978 
L 1159 0 
L 581 0 
L 581 4863 
L 1159 4863 
L 1159 2956 
Q 1366 3272 1645 3428 
Q 1925 3584 2291 3584 
Q 2894 3584 3203 3211 
Q 3513 2838 3513 2113 
z
" transform="scale(0.015625)"/>
     <path id="DejaVuSans-45" d="M 3116 1747 
Q 3116 2381 2855 2742 
Q 2594 3103 2138 3103 
Q 1681 3103 1420 2742 
Q 1159 2381 1159 1747 
Q 1159 1113 1420 752 
Q 1681 391 2138 391 
Q 2594 391 2855 752 
Q 3116 1113 3116 1747 
z
M 1159 2969 
Q 1341 3281 1617 3432 
Q 1894 3584 2278 3584 
Q 2916 3584 3314 3078 
Q 3713 2572 3713 1747 
Q 3713 922 3314 415 
Q 2916 -91 2278 -91 
Q 1894 -91 1617 61 
Q 1341 213 1159 525 
L 1159 0 
L 581 0 
L 581 4863 
L 1159 4863 
L 1159 2969 
z
" transform="scale(0.015625)"/>
     <path id="DejaVuSans-5c" d="M 2059 -325 
Q 1816 -950 1584 -1140 
Q 1353 -1331 966 -1331 
L 506 -1331 
L 506 -850 
L 844 -850 
Q 1081 -850 1212 -737 
Q 1344 -625 1503 -206 
L 1606 56 
L 191 3500 
L 800 3500 
L 1894 763 
L 2988 3500 
L 3597 3500 
L 2059 -325 
z
" transform="scale(0.015625)"/>
     <path id="DejaVuSans-1e" d="M 750 3309 
L 1409 3309 
L 1409 2516 
L 750 2516 
L 750 3309 
z
M 750 794 
L 1409 794 
L 1409 256 
L 897 -744 
L 494 -744 
L 750 256 
L 750 794 
z
" transform="scale(0.015625)"/>
     <path id="DejaVuSans-55" d="M 2631 2963 
Q 2534 3019 2420 3045 
Q 2306 3072 2169 3072 
Q 1681 3072 1420 2755 
Q 1159 2438 1159 1844 
L 1159 0 
L 581 0 
L 581 3500 
L 1159 3500 
L 1159 2956 
Q 1341 3275 1631 3429 
Q 1922 3584 2338 3584 
Q 2397 3584 2469 3576 
Q 2541 3569 2628 3553 
L 2631 2963 
z
" transform="scale(0.015625)"/>
     <path id="DejaVuSans-54" d="M 947 1747 
Q 947 1113 1208 752 
Q 1469 391 1925 391 
Q 2381 391 2643 752 
Q 2906 1113 2906 1747 
Q 2906 2381 2643 2742 
Q 2381 3103 1925 3103 
Q 1469 3103 1208 2742 
Q 947 2381 947 1747 
z
M 2906 525 
Q 2725 213 2448 61 
Q 2172 -91 1784 -91 
Q 1150 -91 751 415 
Q 353 922 353 1747 
Q 353 2572 751 3078 
Q 1150 3584 1784 3584 
Q 2172 3584 2448 3432 
Q 2725 3281 2906 2969 
L 2906 3500 
L 3481 3500 
L 3481 -1331 
L 2906 -1331 
L 2906 525 
z
" transform="scale(0.015625)"/>
     <path id="DejaVuSans-c" d="M 513 4856 
L 1013 4856 
Q 1481 4119 1714 3412 
Q 1947 2706 1947 2009 
Q 1947 1309 1714 600 
Q 1481 -109 1013 -844 
L 513 -844 
Q 928 -128 1133 580 
Q 1338 1288 1338 2009 
Q 1338 2731 1133 3434 
Q 928 4138 513 4856 
z
" transform="scale(0.015625)"/>
    </defs>
    <use xlink:href="#DejaVuSans-2f"/>
    <use xlink:href="#DejaVuSans-2f" transform="translate(55.71875 0)"/>
    <use xlink:href="#DejaVuSans-30" transform="translate(111.4375 0)"/>
    <use xlink:href="#DejaVuSans-3" transform="translate(197.71875 0)"/>
    <use xlink:href="#DejaVuSans-26" transform="translate(229.5 0)"/>
    <use xlink:href="#DejaVuSans-4f" transform="translate(299.328125 0)"/>
    <use xlink:href="#DejaVuSans-52" transform="translate(327.109375 0)"/>
    <use xlink:href="#DejaVuSans-56" transform="translate(388.296875 0)"/>
    <use xlink:href="#DejaVuSans-48" transform="translate(440.390625 0)"/>
    <use xlink:href="#DejaVuSans-47" transform="translate(501.921875 0)"/>
    <use xlink:href="#DejaVuSans-10" transform="translate(565.40625 0)"/>
    <use xlink:href="#DejaVuSans-4f" transform="translate(601.484375 0)"/>
    <use xlink:href="#DejaVuSans-52" transform="translate(629.265625 0)"/>
    <use xlink:href="#DejaVuSans-52" transform="translate(690.453125 0)"/>
    <use xlink:href="#DejaVuSans-53" transform="translate(751.640625 0)"/>
    <use xlink:href="#DejaVuSans-3" transform="translate(815.125 0)"/>
    <use xlink:href="#DejaVuSans-56" transform="translate(846.90625 0)"/>
    <use xlink:href="#DejaVuSans-48" transform="translate(899 0)"/>
    <use xlink:href="#DejaVuSans-48" transform="translate(960.53125 0)"/>
    <use xlink:href="#DejaVuSans-47" transform="translate(1022.0625 0)"/>
    <use xlink:href="#DejaVuSans-13" transform="translate(1085.546875 0)"/>
    <use xlink:href="#DejaVuSans-3" transform="translate(1149.171875 0)"/>
    <use xlink:href="#DejaVuSans-b" transform="translate(1180.953125 0)"/>
    <use xlink:href="#DejaVuSans-44" transform="translate(1219.96875 0)"/>
    <use xlink:href="#DejaVuSans-50" transform="translate(1281.25 0)"/>
    <use xlink:href="#DejaVuSans-53" transform="translate(1378.65625 0)"/>
    <use xlink:href="#DejaVuSans-4f" transform="translate(1442.140625 0)"/>
    <use xlink:href="#DejaVuSans-4c" transform="translate(1469.921875 0)"/>
    <use xlink:href="#DejaVuSans-57" transform="translate(1497.703125 0)"/>
    <use xlink:href="#DejaVuSans-58" transform="translate(1536.90625 0)"/>
    <use xlink:href="#DejaVuSans-47" transform="translate(1600.28125 0)"/>
    <use xlink:href="#DejaVuSans-48" transform="translate(1663.765625 0)"/>
    <use xlink:href="#DejaVuSans-10" transform="translate(1725.296875 0)"/>
    <use xlink:href="#DejaVuSans-48" transform="translate(1761.375 0)"/>
    <use xlink:href="#DejaVuSans-51" transform="translate(1822.90625 0)"/>
    <use xlink:href="#DejaVuSans-46" transform="translate(1886.28125 0)"/>
    <use xlink:href="#DejaVuSans-52" transform="translate(1941.265625 0)"/>
    <use xlink:href="#DejaVuSans-47" transform="translate(2002.453125 0)"/>
    <use xlink:href="#DejaVuSans-48" transform="translate(2065.9375 0)"/>
    <use xlink:href="#DejaVuSans-3" transform="translate(2127.46875 0)"/>
    <use xlink:href="#DejaVuSans-57" transform="translate(2159.25 0)"/>
    <use xlink:href="#DejaVuSans-4b" transform="translate(2198.453125 0)"/>
    <use xlink:href="#DejaVuSans-48" transform="translate(2261.828125 0)"/>
    <use xlink:href="#DejaVuSans-51" transform="translate(2323.359375 0)"/>
    <use xlink:href="#DejaVuSans-3" transform="translate(2386.734375 0)"/>
    <use xlink:href="#DejaVuSans-45" transform="translate(2418.515625 0)"/>
    <use xlink:href="#DejaVuSans-52" transform="translate(2482 0)"/>
    <use xlink:href="#DejaVuSans-47" transform="translate(2543.1875 0)"/>
    <use xlink:href="#DejaVuSans-5c" transform="translate(2606.671875 0)"/>
    <use xlink:href="#DejaVuSans-1e" transform="translate(2665.859375 0)"/>
    <use xlink:href="#DejaVuSans-3" transform="translate(2699.546875 0)"/>
    <use xlink:href="#DejaVuSans-50" transform="translate(2731.328125 0)"/>
    <use xlink:href="#DejaVuSans-48" transform="translate(2828.734375 0)"/>
    <use xlink:href="#DejaVuSans-44" transform="translate(2890.265625 0)"/>
    <use xlink:href="#DejaVuSans-56" transform="translate(2951.546875 0)"/>
    <use xlink:href="#DejaVuSans-58" transform="translate(3003.640625 0)"/>
    <use xlink:href="#DejaVuSans-55" transform="translate(3067.015625 0)"/>
    <use xlink:href="#DejaVuSans-48" transform="translate(3105.921875 0)"/>
    <use xlink:href="#DejaVuSans-3" transform="translate(3167.453125 0)"/>
    <use xlink:href="#DejaVuSans-3d" transform="translate(3199.234375 0)"/>
    <use xlink:href="#DejaVuSans-b" transform="translate(3267.734375 0)"/>
    <use xlink:href="#DejaVuSans-54" transform="translate(3306.75 0)"/>
    <use xlink:href="#DejaVuSans-13" transform="translate(3370.234375 0)"/>
    <use xlink:href="#DejaVuSans-c" transform="translate(3433.859375 0)"/>
    <use xlink:href="#DejaVuSans-c" transform="translate(3472.875 0)"/>
   </g>
  </g>
 </g>
 <defs>
  <clipPath id="pd661abdf14">
   <rect x="65.704048" y="27.668" width="205.741994" height="157.603598"/>
  </clipPath>
 </defs>
</svg>
